<svg width="321" height="250" viewBox="0 0 321 250" fill="none" xmlns="http://www.w3.org/2000/svg">
<path fill-rule="evenodd" clip-rule="evenodd" d="M151.497 0.230626C136.903 2.92375 126.694 8.92658 117.139 20.4334C114.155 24.0283 111.096 28.2267 110.342 29.7651C109.093 32.3126 108.43 32.6946 102.905 34.0542C91.2172 36.9305 81.0745 43.72 72.6883 54.2823C63.4173 65.9574 57.0376 82.2783 55.9437 97.1201L55.4906 103.265L51.2266 103.815C44.7106 104.657 37.318 107.548 30.793 111.807C17.0753 120.758 7.5296 134.903 2.27279 154.065C0.0615761 162.128 0 162.737 0 176.741C0 190.731 0.0629606 191.361 2.26656 199.416C8.02359 220.462 20.1949 236.867 35.9529 244.82C46.5267 250.158 43.3732 249.999 138.787 249.999C234.704 249.999 230.939 250.196 241.592 244.622C244.339 243.185 248.535 240.422 250.916 238.483C255.775 234.524 263.607 225.332 266.31 220.415C267.974 217.387 268.445 217.099 273.272 216.153C294.821 211.93 313.449 190.198 319.387 162.351C321.684 151.582 321.507 134.561 318.989 124.02C311.574 92.9767 291.337 72.7922 265.442 70.6137L259.001 70.0721L256.991 66.3874C253.763 60.4735 246.309 52.4665 240.899 49.1001C233.43 44.4526 227.735 43.0423 218.425 43.536L210.632 43.9485L208.179 38.0651C205.004 30.4497 199.308 21.7921 193.871 16.3178C188.196 10.6037 178.439 4.45171 171.657 2.31064C166.261 0.606513 155.484 -0.504575 151.497 0.230626ZM149.075 14.2526C141.324 15.8713 131.889 21.7294 125.877 28.6558L121.954 33.1742L127.755 35.1156C130.946 36.1831 135.366 38.0651 137.578 39.2983C148.106 45.1677 158.741 57.4577 164.296 70.1732C167.307 77.063 167.479 77.2811 169.485 76.7491C172.923 75.8368 182.36 76.1368 186.782 77.2985C197.224 80.0422 208.253 89.3382 213.958 100.205C215.666 103.458 215.713 103.482 220.369 103.482C235.097 103.482 249.503 111.297 260.466 125.231C268.508 135.454 273.148 145.783 276.161 160.17C277.9 168.477 277.722 186.342 275.812 195.032C275.025 198.615 274.498 201.697 274.642 201.877C275.067 202.414 279.907 200.224 283.99 197.646C300.316 187.339 310.281 167.019 310.281 144.036C310.281 117.484 296.737 94.4802 276.379 86.4541C273.994 85.5139 268.965 84.7491 262.904 84.4063L253.235 83.8595L250.017 77.7136C240.719 59.9572 226.087 52.8703 210.654 58.6481C205.586 60.545 203.926 59.3109 201.557 51.8848C194.003 28.2058 176.732 13.4014 157.094 13.7721C153.635 13.8375 150.027 14.0538 149.075 14.2526ZM108.601 46.7951C102.021 47.7056 98.3954 49.033 92.7234 52.6095C76.6659 62.7358 67.235 81.1263 66.2339 104.268C65.7288 115.948 65.6084 116.109 56.8203 116.836C48.6701 117.511 42.9588 119.294 36.8842 123.06C25.1411 130.338 16.7868 142.526 12.3408 158.862C10.6617 165.032 10.4437 167.099 10.4576 176.741C10.4707 186.147 10.724 188.599 12.2993 194.619C14.8274 204.277 18.4943 211.757 24.2458 218.988C32.0826 228.842 40.349 234.061 51.2273 236.021C55.1481 236.727 81.0613 236.925 142.157 236.715C238.153 236.385 230.211 236.946 241.44 229.704C249.402 224.568 257.721 213.91 261.678 203.777C265.773 193.289 266.896 186.428 266.529 174.124C266.034 157.528 262.201 146.689 252.465 134.347C248.071 128.777 245.644 126.508 241.049 123.672C232.85 118.612 228.357 117.301 218.608 117.128C214.042 117.047 209.914 116.666 209.436 116.281C208.957 115.896 208.065 114.331 207.452 112.803C203.858 103.84 196.239 95.382 188.661 91.9397C183.229 89.4725 174.773 88.9483 169.235 90.7371C166.838 91.5115 164.177 92.1447 163.324 92.1447C161.523 92.1447 159.144 89.1847 158.416 86.0398C155.683 74.2304 145.071 59.1278 135.238 53.0526C126.119 47.4195 117.955 45.5017 108.601 46.7951ZM146.493 119.366C144.665 120.477 145.117 119.005 132.551 164.807C127.179 184.386 122.784 201.36 122.784 202.527C122.784 207.104 128.181 209.935 131.346 207.017C132.456 205.994 138.067 186.465 150.558 140.154C154.088 127.066 154.556 124.609 153.898 122.607C153.166 120.379 150.632 118.242 148.87 118.368C148.412 118.4 147.342 118.849 146.493 119.366ZM78.5229 137.713C62.4847 158.805 61.2082 160.722 61.2082 163.702C61.2082 165.968 62.9531 168.688 72.6212 181.495C89.0745 203.289 89.4827 203.675 92.9241 200.636C95.0225 198.784 95.9337 195.607 95.1311 192.945C94.7811 191.784 89.8231 184.668 84.1138 177.131L73.7337 163.427L84.2328 149.592C90.0072 141.983 94.9845 134.894 95.2944 133.839C95.9815 131.498 94.7236 127.297 92.985 126.124C89.5768 123.825 88.3149 124.836 78.5229 137.713ZM183.292 127.426C179.969 131.614 180.707 133.64 190.035 145.964C194.678 152.099 199.551 158.568 200.862 160.34L203.247 163.562L192.42 177.953C181.222 192.838 180.495 194.328 182.327 198.643C183.249 200.815 186.034 202.193 188.149 201.524C189.876 200.977 214.512 168.889 215.683 165.66C216.168 164.323 216.135 162.995 215.573 161.3C215.129 159.959 208.936 151.296 201.812 142.048C187.68 123.707 186.796 123.008 183.292 127.426Z" fill="#0378BE"/>
<path fill-rule="evenodd" clip-rule="evenodd" d="M108.601 46.7951C102.021 47.7056 98.3954 49.033 92.7234 52.6095C76.6659 62.7358 67.235 81.1263 66.2339 104.268C65.7288 115.948 65.6084 116.109 56.8203 116.836C48.6701 117.511 42.9588 119.294 36.8842 123.06C25.1411 130.338 16.7868 142.526 12.3408 158.862C10.6617 165.032 10.4437 167.099 10.4576 176.741C10.4707 186.147 10.724 188.599 12.2993 194.619C14.8274 204.277 18.4943 211.757 24.2458 218.988C32.0826 228.842 40.349 234.061 51.2273 236.021C55.1481 236.727 81.0613 236.925 142.157 236.715C238.153 236.385 230.211 236.946 241.44 229.704C249.402 224.568 257.721 213.91 261.678 203.777C265.773 193.289 266.896 186.428 266.529 174.124C266.034 157.528 262.201 146.689 252.465 134.347C248.071 128.777 245.644 126.508 241.049 123.672C232.85 118.612 228.357 117.301 218.608 117.128C214.042 117.047 209.914 116.666 209.436 116.281C208.957 115.896 208.065 114.331 207.452 112.803C203.858 103.84 196.239 95.382 188.661 91.9397C183.229 89.4725 174.773 88.9483 169.235 90.7371C166.838 91.5115 164.177 92.1447 163.324 92.1447C161.523 92.1447 159.144 89.1847 158.416 86.0398C155.683 74.2304 145.071 59.1278 135.238 53.0526C126.119 47.4195 117.955 45.5017 108.601 46.7951ZM132.551 164.807C145.117 119.005 144.665 120.477 146.493 119.366C147.342 118.849 148.412 118.4 148.87 118.368C150.632 118.242 153.166 120.379 153.898 122.607C154.556 124.609 154.088 127.066 150.558 140.154C138.067 186.465 132.456 205.994 131.346 207.017C128.181 209.935 122.784 207.104 122.784 202.527C122.784 201.36 127.179 184.386 132.551 164.807ZM61.2082 163.702C61.2082 160.722 62.4847 158.805 78.5229 137.713C88.3149 124.836 89.5768 123.825 92.985 126.124C94.7236 127.297 95.9815 131.498 95.2944 133.839C94.9845 134.894 90.0072 141.983 84.2328 149.592L73.7337 163.427L84.1138 177.131C89.8231 184.668 94.7811 191.784 95.1311 192.945C95.9337 195.607 95.0225 198.784 92.9241 200.636C89.4827 203.675 89.0745 203.289 72.6212 181.495C62.9531 168.688 61.2082 165.968 61.2082 163.702ZM190.035 145.964C180.707 133.64 179.969 131.614 183.292 127.426C186.796 123.008 187.68 123.707 201.812 142.048C208.936 151.296 215.129 159.959 215.573 161.3C216.135 162.995 216.168 164.323 215.683 165.66C214.512 168.889 189.876 200.977 188.149 201.524C186.034 202.193 183.249 200.815 182.327 198.643C180.495 194.328 181.222 192.838 192.42 177.953L203.247 163.562L200.862 160.34C199.551 158.568 194.678 152.099 190.035 145.964Z" fill="#81D4FA"/>
<path d="M149.075 14.2526C141.324 15.8713 131.889 21.7294 125.877 28.6558L121.954 33.1742L127.755 35.1156C130.946 36.1831 135.366 38.0651 137.578 39.2983C148.106 45.1677 158.741 57.4577 164.296 70.1732C167.307 77.063 167.479 77.2811 169.485 76.7491C172.923 75.8368 182.36 76.1368 186.782 77.2985C197.224 80.0422 208.253 89.3382 213.958 100.205C215.666 103.458 215.713 103.482 220.369 103.482C235.097 103.482 249.503 111.297 260.466 125.231C268.508 135.454 273.148 145.783 276.161 160.17C277.9 168.477 277.722 186.342 275.812 195.032C275.025 198.615 274.498 201.697 274.642 201.877C275.067 202.414 279.907 200.224 283.99 197.646C300.316 187.339 310.281 167.019 310.281 144.036C310.281 117.484 296.737 94.4802 276.379 86.4541C273.994 85.5139 268.965 84.7491 262.904 84.4063L253.235 83.8595L250.017 77.7136C240.719 59.9572 226.087 52.8703 210.654 58.6481C205.586 60.545 203.926 59.3109 201.557 51.8848C194.003 28.2058 176.732 13.4014 157.094 13.7721C153.635 13.8375 150.027 14.0538 149.075 14.2526Z" fill="#EEEEEE"/>
</svg>
