<svg width="250" height="250" viewBox="0 0 250 250" fill="none" xmlns="http://www.w3.org/2000/svg">
<path fill-rule="evenodd" clip-rule="evenodd" d="M207.335 0.318827C203.547 0.996492 198.321 2.91065 195.111 4.79633C193.585 5.6935 190.33 8.41594 187.877 10.8467C184.087 14.6023 183.074 15.967 181.131 19.9313C178.816 24.6568 177.422 29.757 177.406 33.5583C177.402 34.7064 177.283 35.6453 177.143 35.6453C177.003 35.6453 176.005 35.086 174.925 34.4024C166.792 29.2556 153.375 23.8505 142.132 21.1914C103.578 12.0748 62.7377 23.4164 34.8359 50.9875C19.8659 65.7803 8.5009 85.4704 3.49018 105.296C1.11315 114.7 0.0189167 123.578 0.000304044 133.612C-0.0256557 147.513 1.60834 157.956 5.8295 170.864C8.38384 178.675 14.24 190.851 18.6595 197.539C20.2984 200.019 21.639 202.232 21.639 202.456C21.639 202.681 18.537 205.956 14.7459 209.733C6.12779 218.321 5.25299 219.812 5.23977 225.932C5.22801 231.475 6.0891 233.335 11.1116 238.622C15.6918 243.442 18.8001 245.002 23.8206 244.999C29.3701 244.996 30.9982 244.006 39.6051 235.406L47.0404 227.976L51.1156 230.688C65.9734 240.571 82.2438 246.752 100.253 249.355C106.956 250.323 125.368 250.173 132.335 249.094C144.798 247.162 155.7 243.725 166.867 238.21C178.103 232.66 186.433 226.798 195.462 218.087C213.823 200.373 226.158 176.452 230.031 151.045C231.517 141.294 231.493 123.122 229.985 116.862C229.759 115.925 230.137 115.726 233.981 114.759C244.556 112.101 249.934 107.917 249.259 102.876C248.562 97.661 241.818 93.8297 229.358 91.5704C226.552 91.0611 224.195 90.5828 224.119 90.5072C224.043 90.4311 228.732 82.3104 234.538 72.4602C240.345 62.6105 245.748 53.2572 246.546 51.6755C253.918 37.0591 249.074 16.7944 235.966 7.41663C232.259 4.7649 226.686 2.07143 222.705 1.00779C219.111 0.0477613 210.908 -0.320044 207.335 0.318827ZM110.294 22.8861C105.232 23.7685 98.7885 27.204 93.2742 31.9609C88.6235 35.9728 82.2075 44.9038 77.7684 53.544C75.2204 58.5032 70.4414 70.0049 70.7852 70.3496C70.8768 70.4414 73.2465 70.9389 76.0512 71.4555C86.6746 73.4114 100.921 74.9155 108.91 74.9253L113.158 74.9302L113.318 51.1354C113.48 27.0611 113.397 22.34 112.818 22.4446C112.642 22.476 111.506 22.6749 110.294 22.8861ZM117.641 48.6584V74.9302L122.172 74.9253C127.491 74.9194 136.185 74.228 144.091 73.1825C150.198 72.3748 159.774 70.6644 160.118 70.3202C160.4 70.0373 158.357 64.4245 156.076 59.2163C147.397 39.3931 134.457 25.8206 121.64 23.0972C119.845 22.7157 118.21 22.3999 118.009 22.395C117.807 22.3906 117.641 34.209 117.641 48.6584ZM135.494 25.0015C140.893 28.9958 147.444 36.1924 151.861 42.9783C155.093 47.9454 159.995 57.7328 162.412 64.0468C163.378 66.5689 164.279 68.8131 164.415 69.0336C164.831 69.7083 178.712 65.6325 184.567 63.1158L186.787 62.1617L185.441 59.8296C181.749 53.4355 178.863 47.225 178.29 44.4412C177.67 41.4364 177.589 41.323 174.711 39.4648C165.883 33.7655 151.289 27.7127 140.662 25.3433C133.611 23.7714 133.852 23.7872 135.494 25.0015ZM87.4519 26.0588C69.38 30.7543 52.7932 40.0118 38.6598 53.2911C36.5717 55.2529 34.8638 57.0541 34.8638 57.2943C34.8638 57.8816 40.5931 60.7386 46.4756 63.0844C51.2385 64.9833 58.5053 67.3335 63.8618 68.707L66.6557 69.4235L67.9605 65.9158C71.5043 56.3902 76.4215 46.8754 81.512 39.6941C84.5297 35.4376 91.3322 28.1699 94.6202 25.69C96.2768 24.4408 96.2934 24.3971 95.11 24.3921C94.4366 24.3892 90.9903 25.1395 87.4519 26.0588ZM211.354 24.9078C208.688 25.3787 206.902 26.3456 204.974 28.3604C198.162 35.4808 203.256 47.4922 213.114 47.5516C219.862 47.5928 224.626 42.8703 224.629 36.1364C224.633 28.7528 218.578 23.631 211.354 24.9078ZM30.3732 62.0674C22.6362 70.6482 13.9368 86.1903 9.70436 98.9923C6.5936 108.403 4.00595 122.585 4.00595 130.227V131.893H30.4555H56.9051L56.91 126.86C56.9232 113.811 59.5981 94.6297 63.3294 80.823C64.1689 77.717 64.8855 74.7515 64.9213 74.2329C64.9761 73.4472 64.2943 73.1143 60.8236 72.2299C52.7481 70.1728 43.0396 66.5282 35.4623 62.7082L31.5659 60.7445L30.3732 62.0674ZM185.873 67.0708C183.687 68.051 171.197 72.1184 167.751 72.9714L165.696 73.4801L166.41 75.8014C170.349 88.6127 172.992 104.523 174.034 121.704L174.652 131.893H200.76H226.868L226.836 128.088C226.793 122.906 225.784 116.394 225.047 116.539C222.307 117.082 209.914 117.191 205.038 116.716C185.858 114.846 175.636 109.336 177.523 101.883C178.741 97.0751 187.006 93.0249 199.418 91.1544C201.428 90.8514 203.153 90.5219 203.253 90.4218C203.636 90.0373 189.307 66.3347 188.636 66.2443C188.247 66.1918 187.003 66.5635 185.873 67.0708ZM68.0247 78.9476C63.9828 93.4167 60.8353 115.33 60.8255 129.07L60.8236 131.893H64.3889H67.9542L68.5649 127.396C71.4146 106.42 89.2079 88.9623 109.813 86.9269L113.233 86.589V82.9694C113.233 80.9786 113.067 79.3498 112.866 79.3493C109.497 79.3468 92.9108 78.1575 88.4977 77.6016C83.2175 76.9372 72.9923 75.2578 70.3288 74.6174C69.4055 74.396 69.1757 74.8266 68.0247 78.9476ZM157.316 75.2357C149.393 76.9991 139.826 78.0711 122.417 79.1465L117.641 79.4416V83.0082V86.5748L121.007 86.8881C127.283 87.4729 135.451 90.4011 141.499 94.2348C148.023 98.3701 154.73 106.038 158.31 113.451C160.34 117.657 162.703 125.872 162.703 128.724C162.703 131.691 162.962 131.893 166.751 131.893H170.205L169.892 123.423C169.413 110.468 167.581 97.1071 164.623 84.997C162.554 76.5242 161.948 74.6945 161.181 74.6061C160.806 74.5624 159.067 74.8463 157.316 75.2357ZM107.7 91.4245C91.3047 94.3954 77.9286 106.975 73.4973 123.591C71.9686 129.323 71.9706 139.19 73.5017 144.907C77.0783 158.262 86.5467 169.152 99.0285 174.264C105.508 176.918 107.761 177.321 115.927 177.283C122.478 177.252 123.751 177.103 127.682 175.903C141.901 171.564 152.397 161.124 157.119 146.625C158.38 142.753 158.479 141.865 158.485 134.349C158.491 126.879 158.386 125.901 157.136 121.827C150.598 100.507 129.427 87.4872 107.7 91.4245ZM201.119 95.0864C192.984 96.152 184.803 99.0168 182.316 101.671C179.806 104.35 182.831 107.287 190.622 109.737C198.327 112.159 201.144 112.496 213.643 112.496C223.925 112.496 225.7 112.374 230.273 111.348C236.508 109.949 239.742 108.769 242.661 106.831C246.28 104.427 246.151 102.458 242.224 100.151C237.953 97.6418 232.497 96.0921 223.572 94.8521L221.501 94.5644L218.488 99.7411C216.832 102.588 215.098 105.121 214.636 105.369C213.278 106.098 212.034 104.821 208.926 99.5049C206.741 95.7704 205.816 94.6031 205.072 94.6439C204.533 94.6734 202.754 94.8723 201.119 95.0864ZM111.757 100.553C109.732 100.738 106.977 101.257 105.634 101.706C90.9325 106.62 81.8691 119.065 81.8926 134.305C81.9014 140.235 82.8379 144.275 85.4315 149.572C87.0561 152.891 88.337 154.614 91.6838 157.983C95.2447 161.569 96.6044 162.563 100.522 164.442C106.483 167.303 109.372 167.972 115.682 167.953C123.966 167.927 131.105 165.36 137.155 160.233C145.205 153.41 149.209 144.721 149.195 134.103C149.182 124.229 146.412 117.534 139.438 110.516C131.587 102.618 122.996 99.526 111.757 100.553ZM108.907 105.147C95.6963 108.022 85.7694 120.56 85.812 134.316C85.8537 147.651 95.6959 160.071 108.635 163.116C113.232 164.198 121.131 163.836 125.342 162.351C131.363 160.228 136.987 155.703 140.628 150.056C143.567 145.498 144.651 141.849 144.931 135.576C145.208 129.384 144.526 125.938 141.975 120.641C139.949 116.436 133.806 110.146 129.55 107.919C123.358 104.68 115.75 103.658 108.907 105.147ZM4.00595 137.942C4.00595 141.545 5.11291 150.637 6.2424 156.318C7.97142 165.009 11.4353 175.1 15.5301 183.372C18.5684 189.509 23.1363 197.31 24.6151 198.885C24.8649 199.151 28.3337 196.101 33.0584 191.46C39.9406 184.7 41.4732 183.435 43.8669 182.537C45.401 181.962 47.3524 181.491 48.2037 181.491C49.5154 181.491 50.5308 180.709 54.8626 176.367C58.2305 172.99 59.8777 170.993 59.6931 170.51C59.0005 168.7 57.2994 152.598 56.9957 144.971L56.6602 136.558L30.3331 136.431L4.00595 136.305V137.942ZM60.8299 139.628C60.8436 146.403 62.7896 166.438 63.5038 167.154C63.9015 167.553 73.5585 157.851 73.5585 157.053C73.5585 156.701 73.0104 155.329 72.3399 154.003C70.654 150.668 68.8015 144.018 68.3891 139.823L68.0443 136.313H64.4339H60.8236L60.8299 139.628ZM162.984 137.418C162.858 138.026 162.611 139.849 162.435 141.469C161.808 147.259 158.841 154.919 154.926 160.856C147.656 171.885 134.228 180.088 121.315 181.39L117.886 181.736V185.419V189.102L122.049 189.209C132.495 189.476 145.185 190.833 156.035 192.842C158.968 193.386 161.528 193.65 161.724 193.43C162.342 192.738 164.632 183.937 166.138 176.465C168.152 166.478 169.541 154.776 169.899 144.784L170.203 136.313H166.708C163.477 136.313 163.195 136.396 162.984 137.418ZM174.045 146.502C173.125 162.116 170.973 175.896 167.444 188.776C166.345 192.786 165.967 194.895 166.325 195.013C166.623 195.111 167.859 195.443 169.071 195.75C176.834 197.715 188.682 202.114 195.632 205.612C197.714 206.659 199.52 207.517 199.647 207.517C200.083 207.517 206.183 199.393 209.106 194.918C219.26 179.374 225.802 159.749 226.718 142.083L227.018 136.313H200.831H174.645L174.045 146.502ZM65.4767 171.669L54.8024 182.379L56.956 183.474C59.6412 184.839 65.6829 190.916 66.8869 193.464L67.7881 195.37L78.5002 184.639C84.3916 178.737 89.0511 173.78 88.8547 173.623C88.6583 173.467 87.398 172.466 86.0545 171.399C82.929 168.918 80.5324 166.517 78.0927 163.422L76.1511 160.96L65.4767 171.669ZM84.5792 184.437C80.2753 188.758 76.9181 192.294 77.1185 192.294C77.3193 192.294 79.6811 191.963 82.3667 191.558C90.1473 190.387 102.162 189.348 107.924 189.348H113.233V185.419V181.491H111.253C108.087 181.491 102.074 180.066 97.5934 178.255C95.3148 177.334 93.215 176.58 92.9275 176.58C92.64 176.58 88.8831 180.116 84.5792 184.437ZM45.8957 186.212C43.7033 186.909 41.8337 188.605 27.3614 203.022C18.226 212.123 10.8177 219.906 10.2294 221.021C8.87561 223.587 8.81438 228.171 10.1016 230.595C11.7297 233.661 16.3001 238.39 18.8824 239.68C21.7502 241.113 25.1534 241.292 27.8997 240.155C29.1198 239.649 35.0313 234.099 45.8124 223.336C63.0781 206.099 64.238 204.639 64.2473 200.124C64.2542 196.975 62.3052 193.357 58.8981 190.194C54.245 185.875 50.5312 184.738 45.8957 186.212ZM97.804 194.022C85.8027 195.045 72.4374 197.15 71.4117 198.178C70.7769 198.815 71.8427 201.909 75.4756 209.972C84.6355 230.304 97.8931 243.625 110.915 245.583L113.233 245.931V219.604V193.276L109.192 193.336C106.97 193.368 101.845 193.677 97.804 194.022ZM117.641 219.548C117.641 242.177 117.74 245.82 118.352 245.82C118.743 245.82 120.23 245.572 121.658 245.269C133.42 242.774 145.929 230.309 154.369 212.673C157.017 207.141 160.254 199.228 160.254 198.289C160.254 196.922 131.243 193.276 120.366 193.276H117.641V219.548ZM162.726 203.416C156.772 219.449 146.284 235.325 137.322 241.867C135.675 243.069 134.401 244.126 134.491 244.215C134.58 244.305 136.721 243.921 139.249 243.362C159.809 238.816 178.212 228.843 193.561 213.929L196.745 210.835L192.827 208.949C184.743 205.057 171.115 200.156 166.172 199.364L164.34 199.07L162.726 203.416ZM67.8699 204.432C67.1127 207.226 64.9056 210.048 57.9396 217.132C53.8032 221.339 50.6106 224.962 50.8457 225.182C54.1568 228.296 70.8107 236.896 78.9082 239.674C83.8587 241.373 91.6118 243.455 95.11 244.026L96.8244 244.305L95.3917 243.221C85.475 235.716 77.4256 224.57 70.5668 208.848C68.6815 204.526 68.1021 203.577 67.8699 204.432Z" fill="#0378BE"/>
<path d="M110.294 22.8861C105.232 23.7685 98.7885 27.204 93.2742 31.9609C88.6235 35.9728 82.2075 44.9038 77.7684 53.544C75.2204 58.5032 70.4414 70.0049 70.7852 70.3496C70.8768 70.4414 73.2465 70.9389 76.0512 71.4555C86.6746 73.4114 100.921 74.9155 108.91 74.9253L113.158 74.9302L113.318 51.1354C113.48 27.0611 113.397 22.34 112.818 22.4446C112.642 22.476 111.506 22.6749 110.294 22.8861Z" fill="#81D4FA"/>
<path d="M117.641 48.6584V74.9302L122.172 74.9253C127.491 74.9194 136.185 74.228 144.091 73.1825C150.198 72.3748 159.774 70.6644 160.118 70.3202C160.4 70.0373 158.357 64.4245 156.076 59.2163C147.397 39.3931 134.457 25.8206 121.64 23.0972C119.845 22.7157 118.21 22.3999 118.009 22.395C117.807 22.3906 117.641 34.209 117.641 48.6584Z" fill="#81D4FA"/>
<path d="M135.494 25.0015C140.893 28.9958 147.444 36.1924 151.861 42.9783C155.093 47.9454 159.995 57.7328 162.412 64.0468C163.378 66.5689 164.279 68.8131 164.415 69.0336C164.831 69.7083 178.712 65.6325 184.567 63.1158L186.787 62.1617L185.441 59.8296C181.749 53.4355 178.863 47.225 178.29 44.4412C177.67 41.4364 177.589 41.323 174.711 39.4648C165.883 33.7655 151.289 27.7127 140.662 25.3433C133.611 23.7714 133.852 23.7872 135.494 25.0015Z" fill="#81D4FA"/>
<path d="M185.873 67.0708C183.687 68.051 171.197 72.1184 167.751 72.9714L165.696 73.4801L166.41 75.8014C170.349 88.6127 172.992 104.523 174.034 121.704L174.652 131.893H200.76H226.868L226.836 128.088C226.793 122.906 225.784 116.394 225.047 116.539C222.307 117.082 209.914 117.191 205.038 116.716C185.858 114.846 175.636 109.336 177.523 101.883C178.741 97.0751 187.006 93.0249 199.418 91.1544C201.428 90.8514 203.153 90.5219 203.253 90.4218C203.636 90.0373 189.307 66.3347 188.636 66.2443C188.247 66.1918 187.003 66.5635 185.873 67.0708Z" fill="#81D4FA"/>
<path d="M157.316 75.2357C149.393 76.9991 139.826 78.0711 122.417 79.1465L117.641 79.4416V83.0082V86.5748L121.007 86.8881C127.283 87.4729 135.451 90.4011 141.499 94.2348C148.023 98.3701 154.73 106.038 158.31 113.451C160.34 117.657 162.703 125.872 162.703 128.724C162.703 131.691 162.962 131.893 166.751 131.893H170.205L169.892 123.423C169.413 110.468 167.581 97.1071 164.623 84.997C162.554 76.5242 161.948 74.6945 161.181 74.6061C160.806 74.5624 159.067 74.8463 157.316 75.2357Z" fill="#81D4FA"/>
<path d="M68.0247 78.9476C63.9828 93.4167 60.8353 115.33 60.8255 129.07L60.8236 131.893H64.3889H67.9542L68.5649 127.396C71.4146 106.42 89.2079 88.9623 109.813 86.9269L113.233 86.589V82.9694C113.233 80.9786 113.067 79.3498 112.866 79.3493C109.497 79.3468 92.9108 78.1575 88.4977 77.6016C83.2175 76.9372 72.9923 75.2578 70.3288 74.6174C69.4055 74.396 69.1757 74.8266 68.0247 78.9476Z" fill="#81D4FA"/>
<path d="M30.3732 62.0674C22.6362 70.6482 13.9368 86.1903 9.70436 98.9923C6.5936 108.403 4.00595 122.585 4.00595 130.227V131.893H30.4555H56.9051L56.91 126.86C56.9232 113.811 59.5981 94.6297 63.3294 80.823C64.1689 77.717 64.8855 74.7515 64.9213 74.2329C64.9761 73.4472 64.2943 73.1143 60.8236 72.2299C52.7481 70.1728 43.0396 66.5282 35.4623 62.7082L31.5659 60.7445L30.3732 62.0674Z" fill="#81D4FA"/>
<path d="M87.4519 26.0588C69.38 30.7543 52.7932 40.0118 38.6598 53.2911C36.5717 55.2529 34.8638 57.0541 34.8638 57.2943C34.8638 57.8816 40.5931 60.7386 46.4756 63.0844C51.2385 64.9833 58.5053 67.3335 63.8618 68.707L66.6557 69.4235L67.9605 65.9158C71.5043 56.3902 76.4215 46.8754 81.512 39.6941C84.5297 35.4376 91.3322 28.1699 94.6202 25.69C96.2768 24.4408 96.2934 24.3971 95.11 24.3921C94.4366 24.3892 90.9903 25.1395 87.4519 26.0588Z" fill="#81D4FA"/>
<path d="M174.045 146.502C173.125 162.116 170.973 175.896 167.444 188.776C166.345 192.786 165.967 194.895 166.325 195.013C166.623 195.111 167.859 195.443 169.071 195.75C176.834 197.715 188.682 202.114 195.632 205.612C197.714 206.659 199.52 207.517 199.647 207.517C200.083 207.517 206.183 199.393 209.106 194.918C219.26 179.374 225.802 159.749 226.718 142.083L227.018 136.313H200.831H174.645L174.045 146.502Z" fill="#81D4FA"/>
<path d="M162.984 137.418C162.858 138.026 162.611 139.849 162.435 141.469C161.808 147.259 158.841 154.919 154.926 160.856C147.656 171.885 134.228 180.088 121.315 181.39L117.886 181.736V185.419V189.102L122.049 189.209C132.495 189.476 145.185 190.833 156.035 192.842C158.968 193.386 161.528 193.65 161.724 193.43C162.342 192.738 164.632 183.937 166.138 176.465C168.152 166.478 169.541 154.776 169.899 144.784L170.203 136.313H166.708C163.477 136.313 163.195 136.396 162.984 137.418Z" fill="#81D4FA"/>
<path d="M84.5792 184.437C80.2753 188.758 76.9181 192.294 77.1185 192.294C77.3193 192.294 79.6811 191.963 82.3667 191.558C90.1473 190.387 102.162 189.348 107.924 189.348H113.233V185.419V181.491H111.253C108.087 181.491 102.074 180.066 97.5934 178.255C95.3148 177.334 93.215 176.58 92.9275 176.58C92.64 176.58 88.8831 180.116 84.5792 184.437Z" fill="#81D4FA"/>
<path d="M60.8299 139.628C60.8436 146.403 62.7896 166.438 63.5038 167.154C63.9015 167.553 73.5585 157.851 73.5585 157.053C73.5585 156.701 73.0104 155.329 72.3399 154.003C70.654 150.668 68.8015 144.018 68.3891 139.823L68.0443 136.313H64.4339H60.8236L60.8299 139.628Z" fill="#81D4FA"/>
<path d="M4.00595 137.942C4.00595 141.545 5.11291 150.637 6.2424 156.318C7.97142 165.009 11.4353 175.1 15.5301 183.372C18.5684 189.509 23.1363 197.31 24.6151 198.885C24.8649 199.151 28.3337 196.101 33.0584 191.46C39.9406 184.7 41.4732 183.435 43.8669 182.537C45.401 181.962 47.3524 181.491 48.2037 181.491C49.5154 181.491 50.5308 180.709 54.8626 176.367C58.2305 172.99 59.8777 170.993 59.6931 170.51C59.0005 168.7 57.2994 152.598 56.9957 144.971L56.6602 136.558L30.3331 136.431L4.00595 136.305V137.942Z" fill="#81D4FA"/>
<path d="M67.8699 204.432C67.1127 207.226 64.9056 210.048 57.9396 217.132C53.8032 221.339 50.6106 224.962 50.8457 225.182C54.1568 228.296 70.8107 236.896 78.9082 239.674C83.8587 241.373 91.6118 243.455 95.11 244.026L96.8244 244.305L95.3917 243.221C85.475 235.716 77.4256 224.57 70.5668 208.848C68.6815 204.526 68.1021 203.577 67.8699 204.432Z" fill="#81D4FA"/>
<path d="M97.804 194.022C85.8027 195.045 72.4374 197.15 71.4117 198.178C70.7769 198.815 71.8427 201.909 75.4756 209.972C84.6355 230.304 97.8931 243.625 110.915 245.583L113.233 245.931V219.604V193.276L109.192 193.336C106.97 193.368 101.845 193.677 97.804 194.022Z" fill="#81D4FA"/>
<path d="M117.641 219.548C117.641 242.177 117.74 245.82 118.352 245.82C118.743 245.82 120.23 245.572 121.658 245.269C133.42 242.774 145.929 230.309 154.369 212.673C157.017 207.141 160.254 199.228 160.254 198.289C160.254 196.922 131.243 193.276 120.366 193.276H117.641V219.548Z" fill="#81D4FA"/>
<path d="M162.726 203.416C156.772 219.449 146.284 235.325 137.322 241.867C135.675 243.069 134.401 244.126 134.491 244.215C134.58 244.305 136.721 243.921 139.249 243.362C159.809 238.816 178.212 228.843 193.561 213.929L196.745 210.835L192.827 208.949C184.743 205.057 171.115 200.156 166.172 199.364L164.34 199.07L162.726 203.416Z" fill="#81D4FA"/>
<path d="M45.8957 186.212C43.7033 186.909 41.8337 188.605 27.3614 203.022C18.226 212.123 10.8177 219.906 10.2294 221.021C8.87561 223.587 8.81438 228.171 10.1016 230.595C11.7297 233.661 16.3001 238.39 18.8824 239.68C21.7502 241.113 25.1534 241.292 27.8997 240.155C29.1198 239.649 35.0313 234.099 45.8124 223.336C63.0781 206.099 64.238 204.639 64.2473 200.124C64.2542 196.975 62.3052 193.357 58.8981 190.194C54.245 185.875 50.5312 184.738 45.8957 186.212Z" fill="#FFA726"/>
<path d="M201.119 95.0864C192.984 96.152 184.803 99.0168 182.316 101.671C179.806 104.35 182.831 107.287 190.622 109.737C198.327 112.159 201.144 112.496 213.643 112.496C223.925 112.496 225.7 112.374 230.273 111.348C236.508 109.949 239.742 108.769 242.661 106.831C246.28 104.427 246.151 102.458 242.224 100.151C237.953 97.6418 232.497 96.0921 223.572 94.8521L221.501 94.5644L218.488 99.7411C216.832 102.588 215.098 105.121 214.636 105.369C213.278 106.098 212.034 104.821 208.926 99.5049C206.741 95.7704 205.816 94.6031 205.072 94.6439C204.533 94.6734 202.754 94.8723 201.119 95.0864Z" fill="white"/>
<path d="M211.354 24.9078C208.688 25.3787 206.902 26.3456 204.974 28.3604C198.162 35.4808 203.256 47.4922 213.114 47.5516C219.862 47.5928 224.626 42.8703 224.629 36.1364C224.633 28.7528 218.578 23.631 211.354 24.9078Z" fill="#EC407A"/>
<path d="M65.4767 171.669L54.8024 182.379L56.956 183.474C59.6412 184.839 65.6829 190.916 66.8869 193.464L67.7881 195.37L78.5002 184.639C84.3916 178.737 89.0511 173.78 88.8547 173.623C88.6583 173.467 87.398 172.466 86.0545 171.399C82.929 168.918 80.5324 166.517 78.0927 163.422L76.1511 160.96L65.4767 171.669Z" fill="#EEEEEE"/>
<path d="M108.907 105.147C95.6963 108.022 85.7694 120.56 85.812 134.316C85.8537 147.651 95.6959 160.071 108.635 163.116C113.232 164.198 121.131 163.836 125.342 162.351C131.363 160.228 136.987 155.703 140.628 150.056C143.567 145.498 144.651 141.849 144.931 135.576C145.208 129.384 144.526 125.938 141.975 120.641C139.949 116.436 133.806 110.146 129.55 107.919C123.358 104.68 115.75 103.658 108.907 105.147Z" fill="#EEEEEE"/>
<path fill-rule="evenodd" clip-rule="evenodd" d="M107.7 91.4245C91.3047 94.3954 77.9286 106.975 73.4973 123.591C71.9686 129.323 71.9706 139.19 73.5017 144.907C77.0783 158.262 86.5467 169.152 99.0285 174.264C105.508 176.918 107.761 177.321 115.927 177.283C122.478 177.252 123.751 177.103 127.682 175.903C141.901 171.564 152.397 161.124 157.119 146.625C158.38 142.753 158.479 141.865 158.485 134.349C158.491 126.879 158.386 125.901 157.136 121.827C150.598 100.507 129.427 87.4872 107.7 91.4245ZM105.634 101.706C106.977 101.257 109.732 100.738 111.757 100.553C122.996 99.526 131.587 102.618 139.438 110.516C146.412 117.534 149.182 124.229 149.195 134.103C149.209 144.721 145.205 153.41 137.155 160.233C131.105 165.36 123.966 167.927 115.682 167.953C109.372 167.972 106.483 167.303 100.522 164.442C96.6044 162.563 95.2447 161.569 91.6838 157.983C88.337 154.614 87.0561 152.891 85.4315 149.572C82.8379 144.275 81.9014 140.235 81.8926 134.305C81.8691 119.065 90.9325 106.62 105.634 101.706Z" fill="#EEEEEE" fill-opacity="0.933333"/>
</svg>
