<svg width="250" height="250" viewBox="0 0 250 250" fill="none" xmlns="http://www.w3.org/2000/svg">
<path fill-rule="evenodd" clip-rule="evenodd" d="M68.6498 2.85861C17.3503 16.7612 -9.81158 69.4002 3.2561 129.593C5.00376 137.646 11.1383 153.088 16.9808 164.144L27.5464 184.137L28.3605 217.068L29.1724 250H91.9137H154.653L155.316 237.583L155.98 225.166L183.04 224.087C208.976 223.052 210.352 222.758 216.224 217.025C222.093 211.292 222.378 210.009 223.09 186.253L223.834 161.462H236.917C244.113 161.462 250 160.564 250 159.465C250 158.368 245.635 145.005 240.302 129.772C234.968 114.539 229.462 94.7889 228.066 85.8811C222.63 51.1916 202.216 22.6263 172.895 8.67835L155.98 0.634366L118.372 0.105299C90.1372 -0.292042 77.7443 0.394666 68.6498 2.85861ZM73.0212 6.25544L80.2109 5.57737L87.4007 4.90146L88.0599 17.3183L88.717 29.7352H110.735H132.752V42.0441C132.752 50.6733 133.448 53.6728 135.083 52.077C136.366 50.8245 137.114 44.0697 136.742 37.0688L136.07 24.3366L114.501 23.719L92.9313 23.1014V13.4615C92.9313 2.44399 93.6613 2.18486 113.286 6.24896C150.887 14.0381 178.202 43.5255 186.546 85.3413L187.947 92.3595L158.69 92.3919C142.598 92.4113 128.146 93.2233 126.573 94.1972C124.513 95.4713 123.894 101.06 124.361 114.14C124.967 131.115 125.336 132.355 129.986 133.001C134.38 133.61 134.964 134.94 134.964 144.338C134.964 150.192 135.959 154.984 137.176 154.984C138.393 154.984 139.388 150.19 139.388 144.329C139.388 134.313 139.751 133.635 145.472 132.992C151.042 132.368 151.613 131.446 152.23 122.052C152.788 113.557 153.644 111.795 157.208 111.795C161.019 111.795 161.502 113.337 161.44 125.291C161.398 133.419 160.139 140.375 158.274 142.776C155.106 146.858 156.004 152.658 160.243 155.491C168.689 161.136 178.788 149.924 171.924 142.522C169.477 139.883 168.154 133.618 167.7 122.538C167.085 107.454 166.7 106.348 161.838 105.677C158.978 105.282 154.248 105.543 151.33 106.258C146.72 107.387 146.025 108.823 146.025 117.234C146.025 126.853 145.978 126.911 138.282 126.911H130.539V112.874V98.8379H158.809H187.08L196.417 126.457C201.552 141.649 205.755 154.768 205.755 155.61C205.755 156.454 200.28 157.143 193.588 157.143H181.421V181.856C181.421 204.854 181.051 206.99 176.089 212.628C170.875 218.554 170.136 218.712 142.353 219.768L113.948 220.847L113.284 233.264L112.62 245.681H73.1141H33.6058L32.8514 213.829L32.0948 181.977L23.7989 167.591C19.2351 159.676 15.503 152.146 15.503 150.855C15.503 149.561 18.9873 148.505 23.2459 148.505C30.6192 148.505 30.9887 148.866 30.9887 156.064C30.9887 161.341 31.9886 163.622 34.307 163.622C36.7648 163.622 37.6254 161.102 37.6254 153.904V144.187H24.6152H11.6029L9.0433 134.259C7.63411 128.8 5.87538 116.653 5.13429 107.266C3.84455 90.93 3.98614 90.2001 8.45264 90.2001C12.7953 90.2001 13.1625 91.5109 13.7576 109.095L14.3969 127.991L32.6479 128.617L50.8988 129.245V137.531C50.8988 142.262 49.4741 146.97 47.5804 148.505C40.3287 154.379 45.9943 164.598 55.7547 163.248C61.6414 162.434 63.7165 154.811 60.0044 147.644C58.7124 145.147 57.3784 139.22 57.0422 134.469L56.4294 125.831L38.2603 125.205L20.0912 124.579L19.4563 104.69L18.8214 84.8014L12.7377 84.119C6.4395 83.4107 5.45948 80.733 8.0478 71.3048C9.17162 67.2105 10.8949 66.446 19.0072 66.446H28.6304L29.2565 90.7399L29.8826 115.034L48.1335 115.66L66.3844 116.288V133.476C66.3844 149.225 66.7561 150.665 70.8089 150.665C74.698 150.665 75.2334 152.105 75.2334 162.542V174.419H63.0661H50.8988V191.848C50.8988 204.464 49.9829 210.173 47.5804 212.518C43.0653 216.926 43.4126 220.506 48.8171 225.281C52.2969 228.356 54.2526 228.764 57.113 227.015C61.6193 224.257 63.2652 215.859 59.9358 212.609C58.6151 211.32 57.5355 203.658 57.5355 195.582C57.5355 182.437 57.9912 180.897 61.8715 180.897C65.7739 180.897 66.2694 182.672 66.849 198.713L67.4906 216.528L79.1048 217.181C85.4937 217.541 90.719 218.651 90.719 219.649C90.719 222.823 97.5195 224.153 101.939 221.843C106.711 219.351 107.609 211.205 103.55 207.243C99.9131 203.693 94.0352 203.991 90.719 207.891C89.2037 209.672 84.6022 211.13 80.4941 211.13H73.0212V196.245C73.0212 185.005 73.833 181.055 76.3395 180.116C78.1646 179.433 79.6579 176.414 79.6579 173.406C79.6579 168.044 79.972 167.941 96.2496 167.941C112.375 167.941 112.841 168.09 112.841 173.22C112.841 177.989 111.822 178.565 102.333 179.159C92.8162 179.755 91.761 180.357 91.146 185.536C90.7323 189.032 88.7966 191.682 86.1685 192.353C78.9986 194.182 81.3591 198.173 89.6129 198.173C96.9863 198.173 97.3557 197.812 97.3557 190.615V183.057H108.417H119.478V173.339V163.622H99.568H79.6579V157.143C79.6579 152.246 80.6711 150.665 83.8124 150.665C86.0955 150.665 89.2037 152.123 90.719 153.904C96.389 160.573 106.205 156.241 106.205 147.069C106.205 140.349 99.2494 136.929 93.7896 140.962C91.4933 142.66 85.9207 144.081 81.41 144.117L73.207 144.187L72.561 127.451L71.915 110.715L53.6641 110.089L35.4132 109.46V85.7948V62.1271H23.2459C16.5538 62.1271 11.0874 61.3994 11.0985 60.5075C11.1117 59.6157 14.0208 53.9536 17.5648 47.92C25.5643 34.3046 45.0187 16.6813 57.2037 12.0082L66.3844 8.48832V20.0738V31.6571L55.8763 32.3158L45.3682 32.9744L44.7355 55.3032C44.2953 70.8729 43.0741 79.1631 40.707 82.6916C36.2671 89.306 39.8885 96.6784 47.5804 96.6784C55.3365 96.6784 58.8916 89.3017 54.3742 82.5729C52.4629 79.7245 50.8988 74.9327 50.8988 71.9202C50.8988 67.1025 51.8279 66.446 58.6416 66.446H66.3844V82.642C66.3844 95.5987 67.0481 98.8379 69.7028 98.8379C72.3575 98.8379 73.0212 95.5987 73.0212 82.642V66.446H79.6579H86.2946V89.1203C86.2946 110.354 86.5755 111.795 90.719 111.795C94.4887 111.795 95.1435 113.235 95.1435 121.512C95.1435 126.857 96.139 131.23 97.3557 131.23C98.5725 131.23 99.568 126.924 99.568 121.663C99.568 113.384 100.238 112.002 104.546 111.406C109.114 110.771 109.576 109.426 110.173 95.0588L110.824 79.4028H127.046C139.006 79.4028 144.021 80.2838 146.118 82.7521C147.702 84.6135 151.502 85.812 154.684 85.4514C159.619 84.8899 160.404 83.7649 160.404 77.2433C160.404 70.9701 159.528 69.5643 155.246 68.9726C152.407 68.5796 148.394 69.7522 146.328 71.5769C143.722 73.8789 136.842 75.0882 123.836 75.5287L105.099 76.1636L104.444 90.7399C103.791 105.301 103.785 105.316 97.254 105.316H90.719V83.7217V62.1271H70.8089H50.8988V50.2501V38.3731H58.6416C65.7695 38.3731 66.3844 38.887 66.3844 44.8514V51.3298H82.7063C94.7497 51.3298 99.7715 52.2066 101.873 54.6791C103.457 56.5406 107.258 57.7391 110.439 57.3785C115.374 56.817 116.16 55.6919 116.16 49.1704C116.16 42.6488 115.374 41.5237 110.439 40.9623C107.258 40.6016 103.457 41.8001 101.873 43.6616C99.8932 45.9916 95.0705 47.0109 86.0247 47.0109H73.0212V26.6321V6.25544ZM108.97 52.9494C107.324 53.485 106.205 51.9539 106.205 49.1704C106.205 46.3868 107.324 44.8558 108.97 45.3913C110.492 45.8858 111.735 47.5875 111.735 49.1704C111.735 50.7532 110.492 52.4549 108.97 52.9494ZM153.215 81.0224C151.569 81.5579 150.449 80.0269 150.449 77.2433C150.449 74.4598 151.569 72.9287 153.215 73.4643C154.737 73.9588 155.98 75.6604 155.98 77.2433C155.98 78.8262 154.737 80.5278 153.215 81.0224ZM50.4785 87.5007C49.5803 92.0529 45.6536 91.7657 44.6537 87.0753C44.2355 85.1189 45.4545 83.7217 47.5804 83.7217C49.8591 83.7217 50.943 85.1361 50.4785 87.5007ZM99.818 151.285C96.7651 154.265 91.6393 150.136 93.9179 146.534C94.7365 145.243 96.2828 144.187 97.3557 144.187C100.774 144.187 102.371 148.793 99.818 151.285ZM167.727 147.966C166.829 152.518 162.902 152.231 161.902 147.54C161.484 145.584 162.703 144.187 164.829 144.187C167.108 144.187 168.192 145.601 167.727 147.966ZM57.1439 154.265C56.0688 159.683 50.8988 160.426 50.8988 155.163C50.8988 152.511 52.3279 150.665 54.3787 150.665C56.4405 150.665 57.5687 152.133 57.1439 154.265ZM99.818 216.068C96.7651 219.048 91.6393 214.92 93.9179 211.318C94.7365 210.026 96.2828 208.97 97.3557 208.97C100.774 208.97 102.371 213.576 99.818 216.068ZM54.3477 221.927C50.651 221.927 48.1578 218.845 50.2219 216.829C52.8655 214.248 57.5355 215.436 57.5355 218.688C57.5355 220.469 56.102 221.927 54.3477 221.927Z" fill="#0378BE"/>
<path d="M80.2109 5.57737L73.0212 6.25544V26.6321V47.0109H86.0247C95.0705 47.0109 99.8932 45.9916 101.873 43.6616C103.457 41.8001 107.258 40.6016 110.439 40.9623C115.374 41.5237 116.16 42.6488 116.16 49.1704C116.16 55.6919 115.374 56.817 110.439 57.3785C107.258 57.7391 103.457 56.5406 101.873 54.6791C99.7715 52.2066 94.7497 51.3298 82.7063 51.3298H66.3844V44.8514C66.3844 38.887 65.7695 38.3731 58.6416 38.3731H50.8988V50.2501V62.1271H70.8089H90.719V83.7217V105.316H97.254C103.785 105.316 103.791 105.301 104.444 90.7399L105.099 76.1636L123.836 75.5287C136.842 75.0882 143.722 73.8789 146.328 71.5769C148.394 69.7522 152.407 68.5796 155.246 68.9726C159.528 69.5643 160.404 70.9701 160.404 77.2433C160.404 83.7649 159.619 84.8899 154.684 85.4514C151.502 85.812 147.702 84.6135 146.118 82.7521C144.021 80.2838 139.006 79.4028 127.046 79.4028H110.824L110.173 95.0588C109.576 109.426 109.114 110.771 104.546 111.406C100.238 112.002 99.568 113.384 99.568 121.663C99.568 126.924 98.5725 131.23 97.3557 131.23C96.139 131.23 95.1435 126.857 95.1435 121.512C95.1435 113.235 94.4887 111.795 90.719 111.795C86.5755 111.795 86.2946 110.354 86.2946 89.1203V66.446H79.6579H73.0212V82.642C73.0212 95.5987 72.3575 98.8379 69.7028 98.8379C67.0481 98.8379 66.3844 95.5987 66.3844 82.642V66.446H58.6416C51.8279 66.446 50.8988 67.1025 50.8988 71.9202C50.8988 74.9327 52.4629 79.7245 54.3742 82.5729C58.8916 89.3017 55.3365 96.6784 47.5804 96.6784C39.8885 96.6784 36.2671 89.306 40.707 82.6916C43.0741 79.1631 44.2953 70.8729 44.7355 55.3032L45.3682 32.9744L55.8763 32.3158L66.3844 31.6571V20.0738V8.48832L57.2037 12.0082C45.0187 16.6813 25.5643 34.3046 17.5648 47.92C14.0208 53.9536 11.1117 59.6157 11.0985 60.5075C11.0874 61.3994 16.5538 62.1271 23.2459 62.1271H35.4132V85.7948V109.46L53.6641 110.089L71.915 110.715L72.561 127.451L73.207 144.187L81.41 144.117C85.9207 144.081 91.4933 142.66 93.7896 140.962C99.2494 136.929 106.205 140.349 106.205 147.069C106.205 156.241 96.389 160.573 90.719 153.904C89.2037 152.123 86.0955 150.665 83.8124 150.665C80.6711 150.665 79.6579 152.246 79.6579 157.143V163.622H99.568H119.478V173.339V183.057H108.417H97.3557V190.615C97.3557 197.812 96.9863 198.173 89.6129 198.173C81.3591 198.173 78.9986 194.182 86.1685 192.353C88.7966 191.682 90.7323 189.032 91.146 185.536C91.761 180.357 92.8162 179.755 102.333 179.159C111.822 178.565 112.841 177.989 112.841 173.22C112.841 168.09 112.375 167.941 96.2496 167.941C79.972 167.941 79.6579 168.044 79.6579 173.406C79.6579 176.414 78.1646 179.433 76.3395 180.116C73.833 181.055 73.0212 185.005 73.0212 196.245V211.13H80.4941C84.6022 211.13 89.2037 209.672 90.719 207.891C94.0352 203.991 99.9131 203.693 103.55 207.243C107.609 211.205 106.711 219.351 101.939 221.843C97.5195 224.153 90.719 222.823 90.719 219.649C90.719 218.651 85.4937 217.541 79.1048 217.181L67.4906 216.528L66.849 198.713C66.2694 182.672 65.7739 180.897 61.8715 180.897C57.9912 180.897 57.5355 182.437 57.5355 195.582C57.5355 203.658 58.6151 211.32 59.9358 212.609C63.2652 215.859 61.6193 224.257 57.113 227.015C54.2526 228.764 52.2969 228.356 48.8171 225.281C43.4126 220.506 43.0653 216.926 47.5804 212.518C49.9829 210.173 50.8988 204.464 50.8988 191.848V174.419H63.0661H75.2334V162.542C75.2334 152.105 74.698 150.665 70.8089 150.665C66.7561 150.665 66.3844 149.225 66.3844 133.476V116.288L48.1335 115.66L29.8826 115.034L29.2565 90.7399L28.6304 66.446H19.0072C10.8949 66.446 9.17162 67.2105 8.0478 71.3048C5.45948 80.733 6.4395 83.4107 12.7377 84.119L18.8214 84.8014L19.4563 104.69L20.0912 124.579L38.2603 125.205L56.4294 125.831L57.0422 134.469C57.3784 139.22 58.7124 145.147 60.0044 147.644C63.7165 154.811 61.6414 162.434 55.7547 163.248C45.9943 164.598 40.3287 154.379 47.5804 148.505C49.4741 146.97 50.8988 142.262 50.8988 137.531V129.245L32.6479 128.617L14.3969 127.991L13.7576 109.095C13.1625 91.5109 12.7953 90.2001 8.45264 90.2001C3.98614 90.2001 3.84455 90.93 5.13429 107.266C5.87538 116.653 7.63411 128.8 9.0433 134.259L11.6029 144.187H24.6152H37.6254V153.904C37.6254 161.102 36.7648 163.622 34.307 163.622C31.9886 163.622 30.9887 161.341 30.9887 156.064C30.9887 148.866 30.6192 148.505 23.2459 148.505C18.9873 148.505 15.503 149.561 15.503 150.855C15.503 152.146 19.2351 159.676 23.7989 167.591L32.0948 181.977L32.8514 213.829L33.6058 245.681H73.1141H112.62L113.284 233.264L113.948 220.847L142.353 219.768C170.136 218.712 170.875 218.554 176.089 212.628C181.051 206.99 181.421 204.854 181.421 181.856V157.143H193.588C200.28 157.143 205.755 156.454 205.755 155.61C205.755 154.768 201.552 141.649 196.417 126.457L187.08 98.8379H158.809H130.539V112.874V126.911H138.282C145.978 126.911 146.025 126.853 146.025 117.234C146.025 108.823 146.72 107.387 151.33 106.258C154.248 105.543 158.978 105.282 161.838 105.677C166.7 106.348 167.085 107.454 167.7 122.538C168.154 133.618 169.477 139.883 171.924 142.522C178.788 149.924 168.689 161.136 160.243 155.491C156.004 152.658 155.106 146.858 158.274 142.776C160.139 140.375 161.398 133.419 161.44 125.291C161.502 113.337 161.019 111.795 157.208 111.795C153.644 111.795 152.788 113.557 152.23 122.052C151.613 131.446 151.042 132.368 145.472 132.992C139.751 133.635 139.388 134.313 139.388 144.329C139.388 150.19 138.393 154.984 137.176 154.984C135.959 154.984 134.964 150.192 134.964 144.338C134.964 134.94 134.38 133.61 129.986 133.001C125.336 132.355 124.967 131.115 124.361 114.14C123.894 101.06 124.513 95.4713 126.573 94.1972C128.146 93.2233 142.598 92.4113 158.69 92.3919L187.947 92.3595L186.546 85.3413C178.202 43.5255 150.887 14.0381 113.286 6.24896C93.6613 2.18486 92.9313 2.44399 92.9313 13.4615V23.1014L114.501 23.719L136.07 24.3366L136.742 37.0688C137.114 44.0697 136.366 50.8245 135.083 52.077C133.448 53.6728 132.752 50.6733 132.752 42.0441V29.7352H110.735H88.717L88.0599 17.3183L87.4007 4.90146L80.2109 5.57737Z" fill="#EEEEEE"/>
</svg>
