<svg width="40" height="39" viewBox="0 0 40 39" fill="none" xmlns="http://www.w3.org/2000/svg">
<path d="M29 35.3139C22.1955 35.3054 15.6722 32.6983 10.8607 28.0643C6.04914 23.4303 3.34214 17.1477 3.33332 10.5943C3.33332 8.636 4.14106 6.7579 5.57884 5.37317C7.01662 3.98844 8.96666 3.21051 11 3.21051C11.4306 3.20735 11.8604 3.24499 12.2833 3.32287C12.6922 3.38114 13.0941 3.47792 13.4833 3.6118C13.7571 3.70431 14.001 3.86403 14.191 4.07517C14.381 4.28631 14.5105 4.54156 14.5667 4.81568L16.85 14.4467C16.9115 14.7081 16.9041 14.9802 16.8284 15.2382C16.7527 15.4961 16.6112 15.7317 16.4167 15.9235C16.2 16.1482 16.1833 16.1642 14.1333 17.1916C15.775 20.6601 18.6553 23.4456 22.25 25.0408C23.3333 23.0504 23.35 23.0344 23.5833 22.8257C23.7824 22.6384 24.027 22.502 24.2949 22.4291C24.5627 22.3562 24.8452 22.3491 25.1167 22.4084L35.1167 24.6074C35.3922 24.669 35.6469 24.7971 35.8568 24.9796C36.0667 25.1621 36.225 25.3931 36.3167 25.6508C36.4573 26.0318 36.5633 26.4239 36.6333 26.8226C36.7004 27.226 36.7338 27.6339 36.7333 28.0425C36.7026 29.9924 35.8722 31.8515 34.4233 33.2138C32.9744 34.5761 31.0248 35.3311 29 35.3139Z" fill="#231F20"/>
</svg>
