<svg width="209" height="208" viewBox="0 0 209 208" fill="none" xmlns="http://www.w3.org/2000/svg">
<path d="M72.574 71.1154C70.5518 71.2718 68.0228 71.5824 66.5773 71.8521L66 71.9599L66.778 72.4317C67.2061 72.6911 67.6894 72.9689 67.8524 73.0489C68.761 73.495 72.875 77.5946 72.875 78.054C72.875 78.1314 73.091 78.4246 73.3547 78.7056C73.9077 79.2943 75.6974 82.3693 76.6787 84.4162C79.0176 89.295 83.169 93.2197 87.7738 94.9055C90.4812 95.8966 94.5438 96.0728 97.7634 95.3384C100.411 94.7347 100.335 94.8099 99.9119 93.2289C99.4512 91.5062 98.428 89.2964 97.2797 87.5437C96.291 86.0343 93.7092 83.2881 92.5449 82.5069C92.1585 82.2478 91.7972 81.9786 91.742 81.909C91.6868 81.8392 91.461 81.6714 91.2403 81.536C90.4081 81.0256 92.2131 81.5044 93.5186 82.1402C96.2193 83.4561 99.2614 85.9441 101.125 88.3616C101.525 88.8816 101.883 89.2776 101.919 89.2414C102.03 89.1308 101.421 86.4937 100.966 85.1162C99.8372 81.6982 97.4042 78.3024 94.3513 75.8837C92.4935 74.412 88.6894 72.6711 85.8455 71.9915C82.3888 71.1656 76.747 70.793 72.574 71.1154Z" fill="black"/>
<path d="M128.071 71.115C122.647 71.6553 117.622 73.537 114.133 76.3329C112.34 77.77 111.289 78.9905 109.992 81.1404C108.539 83.5505 107.197 87.3471 107.197 89.0504C107.197 89.4946 107.309 89.4098 108.067 88.388C108.546 87.7434 109.565 86.6283 110.332 85.9098C112.562 83.8231 116.229 81.5756 116.954 81.8526C117.188 81.942 117.252 81.9092 117.153 81.7504C117.066 81.61 117.133 81.5164 117.321 81.5164C117.493 81.5164 117.634 81.5506 117.634 81.5924C117.634 81.6342 117.115 82.0504 116.48 82.5173C113.208 84.9244 110.582 88.6784 109.296 92.7872C108.835 94.2611 108.79 94.5843 109.024 94.7295C109.178 94.8253 110.117 95.1032 111.111 95.3472C113.717 95.987 117.877 95.9856 120.143 95.3444C124.034 94.2433 127.443 91.8578 130.165 88.3332C130.693 87.6497 131.872 85.6702 132.784 83.9343C134.775 80.1485 135.848 78.5124 137.652 76.5097C139.336 74.641 140.699 73.4606 142.084 72.6715C142.671 72.3371 143.078 71.9967 142.987 71.9151C142.337 71.3256 131.689 70.7544 128.071 71.115Z" fill="black"/>
<path d="M91.9428 81.772C91.998 81.8294 92.7285 82.3324 93.5665 82.8895C97.0138 85.1816 100.174 89.4718 101.54 93.7157C102.5 96.6961 103.104 100.294 103.213 103.679C103.242 104.594 103.333 105.384 103.416 105.435C103.569 105.529 105.571 104.196 105.839 103.821C105.92 103.708 105.988 103.132 105.99 102.541C105.994 100.824 106.557 97.3965 107.224 95.0156C107.916 92.5482 109.011 90.1129 110.262 88.2594C111.317 86.6957 114.375 83.6117 115.825 82.6481C116.431 82.2456 116.833 81.9164 116.719 81.9164C116.357 81.9164 113.825 83.6631 112.477 84.843C111.121 86.0289 109.539 87.9076 108.451 89.6223C107.018 91.8826 105.435 96.085 104.946 98.9248C104.814 99.6896 104.655 100.315 104.592 100.315C104.529 100.315 104.315 99.528 104.116 98.5654C102.753 91.963 99.3523 86.4233 94.7566 83.3205C93.7628 82.6497 91.6911 81.5094 91.9428 81.772Z" fill="black"/>
<path d="M86.6239 102.043C83.3992 102.7 81.4595 103.489 79.7366 104.847C78.6796 105.681 76.9922 107.556 77.0561 107.827C77.079 107.925 77.3917 107.979 77.7509 107.948C78.8691 107.852 82.7346 108.308 84.4026 108.732C88.7175 109.829 92.8781 112.827 94.5111 116.014C94.8722 116.72 94.9384 116.767 95.0703 116.414C96.0809 113.712 98.1749 110.513 100.517 108.092L102.267 106.283L101.772 105.898C100.959 105.266 96.9648 103.386 95.4645 102.929C93.3399 102.281 90.8838 101.913 88.8556 101.938C87.849 101.951 86.8447 101.998 86.6239 102.043Z" fill="black"/>
<path d="M115.928 101.137C111.562 101.764 106.347 104.249 102.844 107.371C98.5581 111.193 95.9081 115.678 95.1423 120.407C94.7351 122.923 95.1445 126.873 95.9396 128.099C96.1619 128.442 97.6926 128.219 101.376 127.307C107.458 125.803 110.475 124.173 113.386 120.817C114.581 119.441 115.394 117.756 116.623 114.115C117.924 110.261 118.417 109.326 119.943 107.815C121.768 106.009 124.536 104.794 127.318 104.577C129.085 104.439 129.094 104.354 127.449 103.303C124.402 101.354 120.077 100.541 115.928 101.137Z" fill="black"/>
<path fill-rule="evenodd" clip-rule="evenodd" d="M127.715 105.826C124.725 106.707 121.92 108.393 119.814 110.575C118.131 112.318 117.008 114.561 116.037 118.114C114.809 122.605 112.059 125.826 107.767 127.801C105.273 128.949 103.467 129.33 99.9211 129.455C98.1823 129.516 96.7599 129.606 96.7599 129.654C96.7599 129.702 97.0292 130.132 97.3584 130.608C98.7716 132.655 101.849 134.678 104.688 135.427C106.371 135.871 110.003 136.019 112.019 135.725C120.113 134.545 127.711 128.969 131.188 121.655C132.514 118.865 132.936 117.098 132.961 114.215C132.985 111.536 132.696 110.137 131.689 108.055C131.025 106.683 129.979 105.309 129.612 105.326C129.482 105.331 128.628 105.556 127.715 105.826Z" fill="black"/>
<path d="M75.9758 109.808C75.0991 111.899 74.7808 115.568 75.2639 118.014C76.9451 126.527 84.4307 134.031 93.7492 136.546C95.213 136.941 95.9257 137.005 98.767 137C101.122 136.995 102.333 136.909 102.959 136.701L103.839 136.409L102.658 135.933C102.008 135.67 100.935 135.135 100.272 134.743C98.8292 133.888 96.4044 131.486 95.8848 130.397C95.6794 129.966 95.4324 129.479 95.3358 129.314C94.9231 128.609 94.5025 127.534 94.201 126.414C93.7971 124.913 93.7548 121.028 94.1263 119.561C94.4605 118.241 94.3698 118.082 91.8637 115.614C89.8509 113.632 88.3145 112.706 84.9178 111.428C83.3813 110.85 79.6423 109.834 76.7309 109.203C76.3546 109.121 76.2181 109.231 75.9758 109.808Z" fill="black"/>
<path d="M207.995 105C207.732 131.954 196.86 157.75 177.687 176.83C158.278 196.147 131.951 207 104.5 207C77.0486 207 50.7224 196.147 31.3128 176.83C12.1402 157.75 1.26751 131.954 1.00487 105L38.4655 105C38.7262 122.073 45.6541 138.39 57.8029 150.48C70.1886 162.807 86.9861 169.731 104.5 169.731C122.014 169.731 138.811 162.807 151.197 150.48C163.346 138.39 170.274 122.073 170.534 105H207.995Z" stroke="black" stroke-width="2"/>
<path d="M1.00487 103C1.26751 76.0456 12.1402 50.2505 31.3127 31.1697C50.7224 11.8529 77.0485 1 104.5 1C131.951 0.999996 158.278 11.8529 177.687 31.1697C196.86 50.2505 207.732 76.0455 207.995 103L170.559 103C170.298 85.9208 163.368 69.5975 151.215 57.5022C138.824 45.1712 122.02 38.2446 104.5 38.2446C86.9796 38.2446 70.1758 45.1713 57.7855 57.5022C45.632 69.5975 38.7016 85.9208 38.4409 103H1.00487Z" fill="black" stroke="black" stroke-width="2"/>
<path d="M179.361 78.1314L192.685 73.9649L195.521 83.0319L192.944 83.8377L191.016 77.6722L188.286 78.5258L189.939 83.8133L187.382 84.6131L185.728 79.3256L182.846 80.227L184.774 86.3925L182.197 87.1984L179.361 78.1314Z" fill="white"/>
<path d="M169.497 60.2776L181.315 52.8467L186.371 60.889L184.086 62.3262L180.647 56.8575L178.226 58.3799L181.175 63.0698L178.906 64.4963L175.957 59.8064L173.401 61.414L176.839 66.8827L174.553 68.3199L169.497 60.2776Z" fill="white"/>
<path d="M155.819 45.8996L165.385 35.7323L172.129 42.0776L170.279 44.0441L165.749 39.7819L163.789 41.8649L167.649 45.4966L165.813 47.4485L161.953 43.8168L158.033 47.9827L155.819 45.8996Z" fill="white"/>
<path d="M139.034 35.3706L145.777 23.1469L153.885 27.6194L152.581 29.9836L147.135 26.9794L145.753 29.4837L150.394 32.0435L149.1 34.3902L144.459 31.8303L141.696 36.8389L139.034 35.3706Z" fill="white"/>
<path d="M122.363 30.2065C121.467 29.9953 120.685 29.6533 120.015 29.1804C119.346 28.7075 118.821 28.1178 118.439 27.4115C118.061 26.6921 117.832 25.864 117.751 24.9272C117.674 23.9774 117.771 22.925 118.044 21.77C118.316 20.615 118.697 19.6365 119.188 18.8343C119.681 18.0191 120.257 17.3808 120.913 16.9192C121.573 16.4447 122.308 16.1453 123.118 16.0213C123.928 15.8972 124.781 15.9408 125.677 16.1519C126.572 16.3631 127.355 16.7051 128.024 17.178C128.693 17.6509 129.217 18.2471 129.595 18.9664C129.977 19.6728 130.206 20.5009 130.284 21.4507C130.364 22.3875 130.268 23.4334 129.996 24.5884C129.723 25.7434 129.34 26.7285 128.847 27.5436C128.356 28.3458 127.781 28.9841 127.121 29.4587C126.464 29.9203 125.731 30.2131 124.921 30.3371C124.111 30.4612 123.258 30.4176 122.363 30.2065ZM122.982 27.5786C123.878 27.7897 124.641 27.6614 125.272 27.1937C125.916 26.7291 126.366 25.9517 126.623 24.8616L127.1 22.8371C127.357 21.747 127.302 20.8503 126.933 20.147C126.578 19.4467 125.952 18.991 125.057 18.7799C124.162 18.5687 123.392 18.6955 122.748 19.1601C122.117 19.6278 121.673 20.4067 121.416 21.4968L120.939 23.5213C120.682 24.6114 120.731 25.5066 121.086 26.2068C121.455 26.9102 122.087 27.3674 122.982 27.5786Z" fill="white"/>
<path d="M100.953 28.571C100.008 28.6202 99.1479 28.5181 98.3737 28.2646C97.5988 27.9979 96.9298 27.5854 96.3667 27.0272C95.8029 26.4558 95.3517 25.7382 95.0131 24.8747C94.6737 23.9978 94.4732 22.9668 94.4116 21.7817C94.3506 20.61 94.443 19.5638 94.6889 18.6431C94.934 17.7091 95.3069 16.922 95.8077 16.2818C96.3077 15.6282 96.9289 15.122 97.6713 14.7629C98.4136 14.4038 99.2575 14.1997 100.203 14.1505C101.494 14.0833 102.574 14.2942 103.44 14.7832C104.306 15.2589 105.021 16.0494 105.586 17.1549L103.04 18.6492C102.824 18.073 102.506 17.6222 102.089 17.2968C101.684 16.9574 101.102 16.8074 100.343 16.8469C99.451 16.8933 98.7473 17.2237 98.2318 17.8379C97.729 18.4382 97.5063 19.2909 97.5638 20.3961L97.6802 22.6331C97.7377 23.7382 98.048 24.5699 98.6111 25.1281C99.1868 25.6722 99.9207 25.9211 100.813 25.8747C101.559 25.8359 102.141 25.6053 102.559 25.183C102.991 24.7467 103.298 24.2367 103.481 23.6531L106.032 24.9623C105.569 26.0545 104.926 26.9157 104.104 27.5459C103.295 28.1621 102.245 28.5038 100.953 28.571Z" fill="white"/>
<path d="M64.2255 32.2416L61.76 30.3557L61.7065 30.3829L65.9758 38.7575L63.4278 40.0564L57.0875 27.6193L60.0453 26.1115L66.4461 30.2565L68.9117 32.1424L68.9651 32.1152L64.6958 23.7406L67.2438 22.4417L73.5842 34.8788L70.6264 36.3867L64.2255 32.2416Z" fill="white"/>
<path d="M52.5036 48.7337L49.4875 47.0233L46.1174 50.2418L47.6872 53.3334L45.4598 55.4606L39.145 42.1879L41.8642 39.591L54.7889 46.5513L52.5036 48.7337ZM42.3819 42.9131L42.3095 42.9822L44.8563 47.8787L47.1705 45.6686L42.3819 42.9131Z" fill="white"/>
<path d="M37.3914 67.94C36.913 68.7569 36.3553 69.4192 35.7181 69.9268C35.0694 70.4277 34.3572 70.7601 33.5815 70.9239C32.7942 71.0809 31.9468 71.0637 31.0392 70.8721C30.12 70.6739 29.1485 70.2749 28.1244 69.6753C27.1119 69.0824 26.2886 68.4304 25.6544 67.7191C25.0087 67.0011 24.556 66.257 24.2962 65.4869C24.0249 64.71 23.9432 63.9128 24.0511 63.0952C24.159 62.2777 24.4521 61.4605 24.9304 60.6435C25.5839 59.5275 26.353 58.7417 27.2377 58.2864C28.1109 57.8242 29.1645 57.6609 30.3985 57.7963L30.2483 60.7445C29.6477 60.6091 29.0967 60.6264 28.5955 60.7964C28.0894 60.9482 27.6444 61.352 27.2604 62.0078C26.809 62.7787 26.6983 63.5483 26.9283 64.3165C27.1536 65.0664 27.7437 65.721 28.6987 66.2802L30.6317 67.412C31.5867 67.9712 32.4521 68.1689 33.2278 68.0051C33.9988 67.8231 34.61 67.3466 35.0614 66.5757C35.4387 65.9314 35.5659 65.3183 35.4431 64.7365C35.3154 64.1364 35.0582 63.5995 34.6712 63.1257L37.167 61.7132C37.8247 62.701 38.1911 63.7112 38.2662 64.744C38.3365 65.7586 38.0449 66.8239 37.3914 67.94Z" fill="white"/>
<path d="M29.2203 88.2272C28.9034 89.4122 28.4351 90.3636 27.8154 91.0812C27.1828 91.7953 26.467 92.3561 25.668 92.7636L24.2331 90.3097C25.5081 89.6707 26.3247 88.6814 26.6829 87.3417C26.8758 86.6204 26.8706 86.0463 26.6673 85.6193C26.464 85.1923 26.1177 84.9133 25.6282 84.7824C25.2546 84.6826 24.918 84.703 24.6181 84.8436C24.3054 84.9808 24.0196 85.353 23.7606 85.96L23.2303 87.2467C22.6677 88.6282 21.9555 89.5627 21.0937 90.0499C20.2354 90.5243 19.2394 90.61 18.1059 90.3069C17.5005 90.145 16.9776 89.881 16.5373 89.5148C16.0969 89.1486 15.7532 88.7048 15.5062 88.1833C15.2627 87.6489 15.1269 87.0468 15.099 86.3768C15.0617 85.6905 15.1498 84.9481 15.3633 84.1495C15.6354 83.1319 16.0358 82.2797 16.5645 81.593C17.0931 80.9062 17.7406 80.3686 18.507 79.98L19.956 82.4584C19.4964 82.6806 19.0886 82.9925 18.7328 83.3942C18.3675 83.7796 18.0919 84.3201 17.9059 85.0156C17.7302 85.6726 17.7153 86.193 17.861 86.577C18.0068 86.9611 18.2858 87.2082 18.698 87.3184C19.1617 87.4424 19.5293 87.4096 19.8008 87.2199C20.0758 87.0174 20.3341 86.6448 20.5758 86.1022L21.1448 84.8258C21.7358 83.4933 22.4428 82.5782 23.2659 82.0806C24.0762 81.5795 25.0674 81.4857 26.2396 81.7991C26.8836 81.9713 27.4451 82.2457 27.9241 82.6222C28.4031 82.9987 28.7756 83.464 29.0414 84.0182C29.3108 84.5594 29.4671 85.1878 29.5104 85.9033C29.5409 86.6153 29.4442 87.39 29.2203 88.2272Z" fill="white"/>
<path d="M189.345 134.363L175.904 130.593L178.47 121.446L181.069 122.175L179.325 128.395L182.078 129.168L183.574 123.834L186.155 124.557L184.659 129.891L187.566 130.707L189.311 124.487L191.911 125.216L189.345 134.363Z" fill="black"/>
<path d="M178.903 155.107L166.871 148.03L171.687 139.841L174.014 141.21L170.739 146.778L173.204 148.228L176.013 143.453L178.323 144.812L175.514 149.587L178.117 151.118L181.393 145.55L183.72 146.919L178.903 155.107Z" fill="black"/>
<path d="M163.947 172.092L154.084 162.212L160.638 155.67L162.545 157.581L158.143 161.975L160.164 163.999L163.915 160.255L165.808 162.151L162.057 165.896L166.098 169.944L163.947 172.092Z" fill="black"/>
<path d="M145.305 184.798L138.204 172.779L146.176 168.069L147.55 170.394L142.195 173.558L143.649 176.02L148.212 173.324L149.576 175.631L145.013 178.327L147.922 183.252L145.305 184.798Z" fill="black"/>
<path d="M126.162 192.074C125.274 192.311 124.423 192.38 123.609 192.28C122.796 192.18 122.054 191.909 121.384 191.467C120.71 191.012 120.116 190.391 119.602 189.604C119.085 188.804 118.673 187.831 118.366 186.684C118.06 185.538 117.933 184.495 117.986 183.556C118.035 182.605 118.24 181.77 118.6 181.053C118.957 180.323 119.463 179.711 120.118 179.219C120.773 178.726 121.545 178.361 122.434 178.124C123.323 177.886 124.174 177.817 124.987 177.917C125.801 178.017 126.544 178.295 127.218 178.75C127.888 179.191 128.482 179.813 128.999 180.613C129.513 181.4 129.924 182.367 130.23 183.513C130.536 184.66 130.665 185.709 130.616 186.66C130.563 187.599 130.358 188.434 130.001 189.164C129.641 189.881 129.133 190.486 128.478 190.979C127.823 191.471 127.051 191.836 126.162 192.074ZM125.465 189.465C126.354 189.228 126.966 188.754 127.3 188.043C127.648 187.329 127.677 186.431 127.388 185.349L126.851 183.34C126.561 182.258 126.088 181.494 125.431 181.049C124.786 180.6 124.02 180.494 123.131 180.732C122.242 180.97 121.624 181.445 121.277 182.159C120.942 182.87 120.919 183.766 121.209 184.848L121.746 186.857C122.035 187.939 122.502 188.705 123.146 189.154C123.803 189.599 124.576 189.703 125.465 189.465Z" fill="black"/>
<path d="M101.59 194.729C100.643 194.707 99.7933 194.542 99.0401 194.231C98.2871 193.908 97.6506 193.447 97.1305 192.848C96.6108 192.236 96.2141 191.487 95.9405 190.601C95.6673 189.701 95.5439 188.658 95.5705 187.472C95.5967 186.299 95.7666 185.263 96.0802 184.363C96.394 183.449 96.8244 182.692 97.3713 182.091C97.9186 181.476 98.5757 181.018 99.3426 180.715C100.11 180.412 100.966 180.271 101.913 180.292C103.206 180.321 104.266 180.612 105.094 181.164C105.922 181.702 106.577 182.544 107.058 183.688L104.408 184.989C104.235 184.398 103.952 183.925 103.56 183.57C103.181 183.201 102.612 183.008 101.852 182.991C100.959 182.971 100.233 183.249 99.6732 183.823C99.1271 184.384 98.8417 185.218 98.817 186.324L98.7668 188.564C98.7421 189.67 98.9897 190.523 99.5098 191.121C100.043 191.707 100.757 192.009 101.65 192.029C102.396 192.046 102.994 191.859 103.443 191.469C103.905 191.066 104.25 190.58 104.476 190.012L106.923 191.507C106.379 192.562 105.674 193.373 104.808 193.94C103.955 194.495 102.883 194.757 101.59 194.729Z" fill="black"/>
<path d="M65.9671 178.681L65.9531 175.576L65.8989 175.551L61.8793 184.048L59.294 182.825L65.2635 170.206L68.2647 171.625L68.8955 179.225L68.9095 182.329L68.9637 182.355L72.9833 173.858L75.5687 175.081L69.5991 187.7L66.598 186.28L65.9671 178.681Z" fill="black"/>
<path d="M45.4632 172.708L46.9408 169.571L43.477 166.454L40.5128 168.253L38.2234 166.192L50.9811 158.893L53.7759 161.408L47.8121 174.822L45.4632 172.708ZM50.5025 162.175L50.4281 162.108L45.738 165.018L48.1166 167.158L50.5025 162.175Z" fill="black"/>
<path d="M27.4169 151.872C26.9146 151.07 26.5861 150.268 26.4315 149.469C26.2882 148.662 26.3237 147.877 26.5379 147.113C26.7635 146.343 27.1714 145.6 27.7617 144.884C28.3632 144.162 29.1669 143.485 30.1728 142.856C31.1673 142.233 32.1266 141.806 33.0508 141.573C33.9862 141.334 34.8554 141.277 35.6583 141.404C36.4724 141.523 37.2168 141.82 37.8913 142.295C38.5658 142.769 39.1542 143.408 39.6565 144.21C40.3427 145.306 40.6827 146.352 40.6764 147.347C40.6813 148.335 40.3379 149.344 39.6461 150.375L37.1031 148.876C37.5014 148.406 37.7413 147.91 37.8229 147.387C37.9228 146.868 37.7712 146.287 37.3679 145.643C36.8939 144.885 36.2632 144.431 35.4759 144.279C34.7069 144.131 33.8534 144.351 32.9154 144.938L31.0168 146.126C30.0787 146.714 29.5026 147.389 29.2883 148.152C29.0924 148.92 29.2315 149.682 29.7055 150.439C30.1017 151.072 30.586 151.469 31.1585 151.63C31.7494 151.795 32.3445 151.815 32.9436 151.692L33.039 154.558C31.8589 154.683 30.7939 154.54 29.8438 154.128C28.9122 153.72 28.1032 152.968 27.4169 151.872Z" fill="black"/>
<path d="M17.382 129.036C17.0302 127.861 16.9299 126.806 17.0812 125.87C17.2452 124.93 17.5605 124.077 18.0271 123.311L20.5358 124.648C19.7854 125.86 19.6091 127.131 20.0067 128.459C20.2209 129.175 20.5264 129.661 20.9235 129.918C21.3205 130.175 21.7617 130.23 22.2471 130.085C22.6175 129.974 22.8935 129.78 23.075 129.503C23.2693 129.222 23.3175 128.756 23.2195 128.103L22.9962 126.729C22.7506 125.258 22.8668 124.089 23.345 123.222C23.827 122.368 24.63 121.773 25.754 121.436C26.3544 121.256 26.938 121.207 27.505 121.288C28.072 121.369 28.5974 121.566 29.0813 121.881C29.5689 122.208 30.0003 122.649 30.3754 123.205C30.7672 123.77 31.0816 124.448 31.3187 125.24C31.6207 126.249 31.7268 127.185 31.6369 128.047C31.547 128.909 31.2777 129.706 30.829 130.439L28.2954 129.089C28.5702 128.659 28.7538 128.179 28.846 127.65C28.9549 127.131 28.9061 126.526 28.6996 125.836C28.5046 125.185 28.2443 124.734 27.9188 124.483C27.5933 124.233 27.2262 124.169 26.8174 124.291C26.3576 124.429 26.0618 124.65 25.9301 124.953C25.8022 125.27 25.7777 125.723 25.8565 126.312L26.0415 127.697C26.2373 129.141 26.1153 130.291 25.6755 131.147C25.2484 131.998 24.4537 132.598 23.2913 132.946C22.6527 133.137 22.0307 133.198 21.4254 133.129C20.8201 133.059 20.2589 132.858 19.7419 132.526C19.2287 132.207 18.766 131.754 18.3538 131.167C17.9545 130.577 17.6305 129.867 17.382 129.036Z" fill="black"/>
</svg>
