<svg width="53" height="53" viewBox="0 0 53 53" fill="none" xmlns="http://www.w3.org/2000/svg">
<path d="M52.92 26.46C52.92 11.8805 41.0395 0 26.46 0C11.8805 0 0 11.8805 0 26.46C0 34.1334 3.3075 41.0395 8.54658 45.8816C8.54658 45.9081 8.54658 45.9081 8.52012 45.9346C8.78472 46.1992 9.10224 46.4108 9.36684 46.649C9.5256 46.7813 9.6579 46.9136 9.81666 47.0194C10.2929 47.4163 10.8221 47.7868 11.3249 48.1572C11.5101 48.2895 11.6689 48.3953 11.8541 48.5276C12.3568 48.8716 12.886 49.1891 13.4417 49.4802C13.6269 49.586 13.8386 49.7183 14.0238 49.8242C14.553 50.1152 15.1087 50.3798 15.6908 50.618C15.9025 50.7238 16.1141 50.8297 16.3258 50.909C16.9079 51.1472 17.4901 51.3589 18.0722 51.5441C18.2839 51.6235 18.4955 51.7028 18.7072 51.7558C19.3423 51.941 19.9773 52.0997 20.6123 52.2585C20.7976 52.3114 20.9828 52.3643 21.1945 52.3908C21.9353 52.5496 22.6762 52.6554 23.4436 52.7348C23.5494 52.7348 23.6552 52.7612 23.7611 52.7877C24.6607 52.8671 25.5604 52.92 26.46 52.92C27.3596 52.92 28.2593 52.8671 29.1325 52.7877C29.2383 52.7877 29.3441 52.7612 29.45 52.7348C30.2173 52.6554 30.9582 52.5496 31.6991 52.3908C31.8843 52.3643 32.0695 52.285 32.2812 52.2585C32.9162 52.0997 33.5777 51.9674 34.1863 51.7558C34.398 51.6764 34.6097 51.597 34.8214 51.5441C35.4035 51.3324 36.0121 51.1472 36.5677 50.909C36.7794 50.8297 36.9911 50.7238 37.2028 50.618C37.7584 50.3798 38.3141 50.1152 38.8697 49.8242C39.0814 49.7183 39.2666 49.586 39.4519 49.4802C39.9811 49.1627 40.5103 48.8716 41.0395 48.5276C41.2247 48.4218 41.3834 48.2895 41.5687 48.1572C42.0979 47.7868 42.6006 47.4163 43.0769 47.0194C43.2356 46.8871 43.3679 46.7548 43.5267 46.649C43.8178 46.4108 44.1088 46.1727 44.3734 45.9346C44.3734 45.9081 44.3734 45.9081 44.347 45.8816C49.6125 41.0395 52.92 34.1334 52.92 26.46ZM39.5312 39.6106C32.3606 34.7949 20.6123 34.7949 13.3888 39.6106C12.2245 40.378 11.272 41.2776 10.4782 42.2566C6.45624 38.1818 3.969 32.5987 3.969 26.46C3.969 14.0503 14.0503 3.969 26.46 3.969C38.8697 3.969 48.951 14.0503 48.951 26.46C48.951 32.5987 46.4638 38.1818 42.4418 42.2566C41.6745 41.2776 40.6955 40.378 39.5312 39.6106Z" fill="white"/>
<path d="M26.46 13.044C20.9828 13.044 16.5375 17.4892 16.5375 22.9665C16.5375 28.3379 20.7446 32.7038 26.3277 32.8625H26.5658H26.751H26.804C32.1489 32.6773 36.356 28.3379 36.3825 22.9665C36.3825 17.4892 31.9372 13.044 26.46 13.044Z" fill="white"/>
</svg>
